<svg width="69" height="72" viewBox="0 0 69 72" fill="none" xmlns="http://www.w3.org/2000/svg">
<path d="M68.237 31.1361L61.6891 30.1606C61.0052 27.3127 59.8839 24.6218 58.3591 22.1215L62.2945 16.7958C62.5412 16.4594 62.5076 15.9997 62.2161 15.697L55.4888 8.9697C55.1973 8.68939 54.7376 8.65576 54.4012 8.90242L49.0755 12.8379C47.3376 11.7727 45.4427 10.8982 43.447 10.2255C42.9985 10.0797 42.5276 10.3152 42.3818 10.7524C42.2361 11.1897 42.4715 11.6718 42.9088 11.8176C44.9718 12.5127 46.9115 13.4321 48.6606 14.5645C48.9521 14.7552 49.3333 14.7439 49.6136 14.5309L54.8161 10.6852L60.5118 16.3809L56.6661 21.5833C56.453 21.8636 56.4418 22.2449 56.6324 22.5364C58.3142 25.16 59.5027 28.0415 60.1755 31.0912C60.2539 31.4276 60.523 31.6967 60.8706 31.7415L67.2727 32.6945V40.7561L60.8706 41.7091C60.523 41.7652 60.2427 42.023 60.1755 42.3594C59.5139 45.3979 58.3255 48.2682 56.6324 50.9142C56.4418 51.2058 56.453 51.587 56.6661 51.8673L60.5118 57.0697L54.8161 62.7655L49.6136 58.9197C49.3333 58.7067 48.9521 58.6955 48.6606 58.8861C46.0258 60.5679 43.1555 61.7564 40.117 62.4179C39.7806 62.4964 39.5115 62.7655 39.4667 63.113L38.5136 69.5152H30.4521L29.4991 63.113C29.443 62.7655 29.1852 62.4852 28.8488 62.4179C25.8103 61.7564 22.94 60.5679 20.3052 58.8861C20.0136 58.6955 19.6324 58.7067 19.3521 58.9197L14.1497 62.7655L8.45394 57.0697L12.2997 51.8673C12.5127 51.587 12.5239 51.2058 12.3333 50.9142C10.6403 48.2794 9.45182 45.3979 8.7903 42.3594C8.71182 42.023 8.44273 41.7539 8.09515 41.7091L1.68182 40.7561V32.6945L8.08394 31.7415C8.43152 31.6855 8.71182 31.4276 8.77909 31.0912C9.44061 28.0415 10.6403 25.1712 12.3221 22.5364C12.5127 22.2449 12.5015 21.8636 12.2885 21.5833L8.44273 16.3809L14.1385 10.6852L19.3409 14.5309C19.6212 14.7439 20.0024 14.7552 20.2939 14.5645C22.0542 13.4433 23.9827 12.5127 26.0458 11.8176C26.483 11.6718 26.7185 11.1897 26.5727 10.7524C26.427 10.3152 25.9561 10.0797 25.5076 10.2255C23.5118 10.8982 21.617 11.7839 19.8791 12.8379L14.5533 8.90242C14.217 8.65576 13.7573 8.68939 13.4545 8.98091L6.72727 15.7082C6.44697 15.9997 6.41333 16.4594 6.66 16.7958L10.5955 22.1215C9.07061 24.6218 7.94939 27.3127 7.26545 30.1606L0.717576 31.1361C0.302727 31.1921 0 31.5509 0 31.9658V41.4736C0 41.8885 0.302727 42.2473 0.717576 42.3033L7.26545 43.2788C7.94939 46.1155 9.05939 48.8176 10.5955 51.3179L6.66 56.6436C6.41333 56.98 6.44697 57.4397 6.73849 57.7424L13.4658 64.4697C13.7573 64.7612 14.2282 64.7949 14.5645 64.5482L19.8903 60.6127C22.3906 62.1376 25.0815 63.2588 27.9294 63.9315L28.9049 70.4794C28.9721 70.8943 29.3197 71.197 29.7345 71.197H39.2424C39.6573 71.197 40.0161 70.8943 40.0721 70.4794L41.0476 63.9315C43.8842 63.2476 46.5864 62.1376 49.0867 60.6127L54.4124 64.5482C54.7488 64.7949 55.2085 64.7612 55.5112 64.4697L62.2385 57.7424C62.53 57.4509 62.5636 56.98 62.317 56.6436L58.3815 51.3179C59.9176 48.8176 61.0276 46.1155 61.7115 43.2788L68.2594 42.3033C68.6742 42.2473 68.977 41.8885 68.977 41.4736V31.9658C68.9545 31.5509 68.6518 31.1921 68.237 31.1361Z" fill="#FF5E14"/>
<path d="M43.5595 19.027C43.1447 18.8139 42.6401 18.9821 42.4271 19.3858C42.2141 19.7894 42.3822 20.3052 42.7859 20.5182C48.8965 23.6576 52.6862 29.8691 52.6862 36.7197C52.6862 46.7658 44.5125 54.9394 34.4665 54.9394C24.4204 54.9394 16.258 46.7658 16.258 36.7197C16.258 29.8691 20.0589 23.6688 26.1695 20.5182C26.5844 20.3052 26.7413 19.8006 26.5283 19.3858C26.3153 18.9709 25.8107 18.8139 25.3959 19.027C18.7247 22.4579 14.5762 29.2412 14.5762 36.7197C14.5762 47.6964 23.501 56.6212 34.4777 56.6212C45.4544 56.6212 54.3792 47.6964 54.3792 36.7197C54.3792 29.2412 50.2307 22.4579 43.5595 19.027Z" fill="#FF5E14"/>
<path d="M21.7408 31.0127C21.6174 31.3379 21.6959 31.7079 21.9538 31.9321L33.9171 42.9424C34.0741 43.0882 34.2871 43.1667 34.489 43.1667C34.6908 43.1667 34.8926 43.0882 35.0608 42.9424L47.0241 31.9321C47.282 31.6967 47.3605 31.3267 47.2371 31.0127C47.1138 30.6988 46.7999 30.4745 46.4523 30.4745H40.6668V0.840909C40.6668 0.381212 40.2856 0 39.8259 0C39.3662 0 38.9738 0.381212 38.9738 0.840909V31.3155C38.9738 31.7752 39.355 32.1564 39.8147 32.1564H44.2884L34.4777 41.1821L24.6784 32.1564H29.152C29.6117 32.1564 29.9929 31.7752 29.9929 31.3155V0.840909C29.9929 0.381212 29.6117 0 29.152 0C28.6923 0 28.2999 0.381212 28.2999 0.840909V30.4745H22.5144C22.1781 30.4745 21.8641 30.6876 21.7408 31.0127Z" fill="#FF5E14"/>
<path d="M34.4777 66.9924C35.0969 66.9924 35.5989 66.4904 35.5989 65.8712C35.5989 65.252 35.0969 64.75 34.4777 64.75C33.8584 64.75 33.3564 65.252 33.3564 65.8712C33.3564 66.4904 33.8584 66.9924 34.4777 66.9924Z" fill="#FF5E14"/>
<path d="M13.0731 58.1236C13.5103 58.5609 14.2167 58.5609 14.654 58.1236C15.0913 57.6864 15.0913 56.98 14.654 56.5427C14.2167 56.1055 13.5103 56.1055 13.0731 56.5427C12.6358 56.98 12.6358 57.6864 13.0731 58.1236Z" fill="#FF5E14"/>
<path d="M55.8815 15.3158C55.4442 14.8785 54.7379 14.8785 54.3006 15.3158C53.8633 15.753 53.8633 16.4594 54.3006 16.8967C54.7379 17.3339 55.4442 17.3339 55.8815 16.8967C56.3188 16.4594 56.3188 15.753 55.8815 15.3158Z" fill="#FF5E14"/>
<path d="M5.32531 37.8409C5.94454 37.8409 6.44653 37.3389 6.44653 36.7197C6.44653 36.1005 5.94454 35.5985 5.32531 35.5985C4.70609 35.5985 4.2041 36.1005 4.2041 36.7197C4.2041 37.3389 4.70609 37.8409 5.32531 37.8409Z" fill="#FF5E14"/>
<path d="M63.629 37.8409C64.2483 37.8409 64.7502 37.3389 64.7502 36.7197C64.7502 36.1005 64.2483 35.5985 63.629 35.5985C63.0098 35.5985 62.5078 36.1005 62.5078 36.7197C62.5078 37.3389 63.0098 37.8409 63.629 37.8409Z" fill="#FF5E14"/>
<path d="M14.654 16.8967C15.0913 16.4594 15.0913 15.753 14.654 15.3158C14.2167 14.8785 13.5103 14.8785 13.0731 15.3158C12.6358 15.753 12.6358 16.4594 13.0731 16.8967C13.5103 17.3339 14.2167 17.3339 14.654 16.8967Z" fill="#FF5E14"/>
<path d="M54.3006 56.5427C53.8633 56.98 53.8633 57.6864 54.3006 58.1236C54.7379 58.5609 55.4442 58.5609 55.8815 58.1236C56.3188 57.6864 56.3188 56.98 55.8815 56.5427C55.4442 56.1055 54.7379 56.1055 54.3006 56.5427Z" fill="#FF5E14"/>
</svg>
