<svg width="71" height="71" viewBox="0 0 71 71" fill="none" xmlns="http://www.w3.org/2000/svg">
<path d="M53.0414 30.3022C52.7752 29.8584 52.293 29.5833 51.7723 29.5833H36.2056L47.2283 2.02932C47.4118 1.57074 47.3555 1.05599 47.0804 0.650787C46.8054 0.242537 46.3468 0 45.8557 0H31.064C30.4132 0 29.8393 0.426 29.65 1.04434L17.8167 39.5026C17.6807 39.9523 17.7605 40.4374 18.0415 40.8161C18.3224 41.1948 18.7604 41.4167 19.2307 41.4167H32.3864L29.5908 69.373C29.5227 70.0741 29.9576 70.7279 30.6321 70.935C30.7741 70.9793 30.919 71 31.064 71C31.5965 71 32.1024 70.71 32.3657 70.2219L53.074 31.7636C53.3196 31.305 53.3077 30.749 53.0414 30.3022ZM33.271 62.2996L35.4927 40.0855C35.5341 39.6683 35.3979 39.2572 35.117 38.9435C34.839 38.6358 34.4396 38.4583 34.0225 38.4583H21.2336L32.1558 2.95829H43.6726L32.6499 30.5122C32.4664 30.9678 32.5256 31.4825 32.7978 31.8908C33.073 32.299 33.5316 32.5416 34.0226 32.5416H49.2965L33.271 62.2996Z" fill="#FF5E14"/>
<path d="M26.0638 63.542C24.416 62.9858 22.7978 62.2789 21.2624 61.4327C19.7448 60.5955 18.2953 59.6222 16.9492 58.5365C15.609 57.4567 14.3548 56.2528 13.2188 54.951C12.0828 53.6553 11.0562 52.2442 10.1598 50.762C9.25746 49.271 8.48534 47.6913 7.86409 46.0672C7.23396 44.4135 6.74584 42.6918 6.42037 40.9492C6.08603 39.1653 5.91741 37.3311 5.91741 35.5C5.91741 33.7132 6.07716 31.9204 6.39666 30.172C6.70437 28.474 7.16878 26.7847 7.7752 25.1665C8.36982 23.572 9.10645 22.0219 9.96732 20.5515C10.8164 19.099 11.8015 17.7086 12.8901 16.4187C13.9787 15.1288 15.1828 13.9308 16.4667 12.8539C17.7596 11.7652 19.1499 10.786 20.6054 9.93691C22.0816 9.07312 23.6347 8.33941 25.2204 7.75366C25.9866 7.46966 26.3771 6.62057 26.0961 5.85441C25.8121 5.08824 24.963 4.68582 24.1969 4.97869C22.4485 5.62061 20.7385 6.43128 19.1144 7.38091C17.514 8.31278 15.9815 9.39262 14.5615 10.5877C13.1504 11.771 11.828 13.0934 10.6299 14.5104C9.43177 15.9275 8.35193 17.4569 7.41423 19.0544C6.46752 20.6697 5.65407 22.3766 5.00023 24.1309C4.3317 25.9177 3.82277 27.7697 3.48261 29.6452C3.13648 31.5651 2.95898 33.5354 2.95898 35.4998C2.95898 37.5144 3.14536 39.5291 3.50923 41.4964C3.8702 43.4163 4.4027 45.3127 5.10077 47.1291C5.78415 48.9159 6.63615 50.6554 7.62723 52.2973C8.61236 53.9274 9.7424 55.4745 10.9909 56.9034C12.2363 58.3294 13.6179 59.6576 15.094 60.8468C16.5732 62.0361 18.1677 63.107 19.8362 64.027C21.5284 64.9559 23.3063 65.7399 25.1228 66.3463C25.2796 66.4024 25.4363 66.4232 25.5931 66.4232C26.2115 66.4232 26.7884 66.0327 26.9954 65.4144C27.256 64.6395 26.8388 63.8023 26.0638 63.542Z" fill="#FF5E14"/>
<path d="M67.5985 30.1189C67.3085 28.3882 66.8767 26.6724 66.3145 25.0128C65.7583 23.3769 65.0691 21.7794 64.2644 20.2676C63.4686 18.7648 62.5426 17.3122 61.5161 15.9455C60.4954 14.5936 59.3594 13.3067 58.1436 12.1263C56.9188 10.94 55.5964 9.84544 54.2119 8.8721C52.8156 7.88989 51.3305 7.01126 49.8011 6.25994C49.0673 5.90785 48.1798 6.20378 47.8219 6.93735C47.461 7.67106 47.7627 8.55551 48.4993 8.91648C49.8927 9.59694 51.2417 10.3986 52.5108 11.2921C53.7682 12.1767 54.9692 13.1707 56.0846 14.2504C57.1939 15.3242 58.2263 16.4928 59.1553 17.7234C60.0901 18.9659 60.9303 20.2854 61.6551 21.6521C62.3889 23.0306 63.013 24.4803 63.5189 25.9654C64.0307 27.4712 64.4241 29.0301 64.6844 30.601C64.9478 32.2074 65.0838 33.8522 65.0838 35.5C65.0838 37.5058 64.8826 39.5086 64.4832 41.4669C64.0956 43.3602 63.5158 45.227 62.7586 47.0167C62.019 48.7651 61.1018 50.4542 60.031 52.04C58.9778 53.599 57.7619 55.0723 56.4189 56.4182C55.0817 57.7555 53.6055 58.9713 52.0406 60.0333C50.4549 61.1012 48.7657 62.0213 47.0144 62.7579C45.2335 63.5123 43.3668 64.0921 41.4676 64.4826C40.8552 64.6068 40.2339 64.7133 39.6098 64.7992C38.8022 64.9086 38.2342 65.6541 38.3436 66.4648C38.4441 67.2073 39.0802 67.7457 39.8079 67.7457C39.873 67.7457 39.9411 67.7427 40.0092 67.7308C40.6985 67.6392 41.3788 67.5207 42.0593 67.3818C44.1538 66.9498 46.2099 66.3139 48.1682 65.4854C50.0912 64.6719 51.9519 63.6632 53.6973 62.4828C55.422 61.3142 57.0403 59.98 58.5105 58.5097C59.9897 57.0305 61.3268 55.4094 62.4836 53.6906C63.658 51.9482 64.6697 50.0902 65.4833 48.1644C66.3176 46.197 66.9537 44.144 67.3797 42.0554C67.8205 39.9077 68.0424 37.7038 68.0424 35.4997C68.0422 33.6924 67.8943 31.879 67.5985 30.1189Z" fill="#FF5E14"/>
</svg>
